<?xml version="1.0" encoding="utf-8"?>
<!-- Generator: Adobe Illustrator 27.8.1, SVG Export Plug-In . SVG Version: 6.00 Build 0)  -->
<svg version="1.1" id="Camada_1" xmlns="http://www.w3.org/2000/svg" xmlns:xlink="http://www.w3.org/1999/xlink" x="0px" y="0px"
	 viewBox="0 0 551 228" style="enable-background:new 0 0 551 228;" xml:space="preserve">
<style type="text/css">
	.st0{fill:#F15A22;}
	.st1{fill:#FFFFFF;}
</style>
<g>
	<path class="st0" d="M538.8,95.1c-3.1,0-6.3-1.1-8.1-2.1c-37-19.1-78.9-30.4-119.7-30.4c-5.1,0-8.9,0.2-13.6,0.7
		c7.7,12.1,20.9,29.8,30,40.6c2.4,2.8,3.1,4.5,3.1,7.2c0,4.7-5,9.3-10.3,9.3c-3.5,0-5.7-1.4-9-5.2c-11-12.9-27.6-35.7-35.5-48.6
		C336.9,73.4,293.8,96,268.3,116c-2.9,2.3-4.9,3.3-7.9,3.3c-5.4,0-10.1-4.6-10.1-9.9c0-3.1,1.1-5.4,5.1-8.7
		c38.9-32.1,99.3-57.5,150.5-57.5c20.3,0,39.9,2.8,58.9,7.4c11.5,2.8,28.6,8.5,43.1,14.8C469.8,42.5,422,21.6,391.8,21.6
		c-7.7,0-12.4,2.6-12.4,7.7c0,3,1.7,7.1,4.2,11.2c-6,0.6-14,1.8-20,3.4c-3.1-5.7-5.3-11.8-5.3-18.4C358.4,11,368,2,387.3,2
		c43.8,0,117.4,40.5,154.1,70.1c4.2,3.4,8.3,7.6,8.3,12.5C549.8,89.5,545.5,95.1,538.8,95.1"/>
	<path class="st1" d="M62.7,181.4c0-2.6,1.6-4.2,4-4.2c2.4,0,4,1.6,4,4.2v4.4c2.1-4.3,6.9-8.6,11.1-8.6c2.7,0,4.1,1.6,4.1,3.7
		c0,2.1-1.1,3.6-4.7,4.6c-7.3,2-10.5,6.1-10.5,13.9v22.5c0,2.6-1.5,4.2-4,4.2c-2.4,0-4-1.6-4-4.2C62.7,221.9,62.7,181.4,62.7,181.4z
		"/>
	<path class="st1" d="M242.4,181.4c0-2.6,1.6-4.2,4-4.2s4,1.6,4,4.2v4.4c2.1-4.3,6.9-8.6,11.1-8.6c2.7,0,4.1,1.6,4.1,3.7
		c0,2.1-1.1,3.6-4.7,4.6c-7.3,2-10.5,6.1-10.5,13.9v22.5c0,2.6-1.5,4.2-4,4.2c-2.4,0-4-1.6-4-4.2V181.4z"/>
	<path class="st1" d="M108.7,177.1c7.8,0,12.9,3.1,12.9,5.9c0,1.7-1.3,3.4-3.2,3.4c-2.9,0-4.3-2.3-9.7-2.3
		c-9.1,0-13.8,8.1-13.8,17.5c0,10.2,5.3,17.5,13.8,17.5c5.9,0,7.2-2.4,10-2.4c1.8,0,2.9,1.2,2.9,3.1c0,1.8-1.5,3.3-4.2,4.5
		c-2.4,1.1-5.5,1.8-8.7,1.8c-13.6,0-21.8-10.2-21.8-24.4C86.9,187.6,95.2,177.1,108.7,177.1"/>
	<path class="st1" d="M159.6,198.7c0-6.8-3.9-14.6-12.7-14.6c-8.6,0-13.3,6.7-13.6,14.6H159.6z M133.3,204.6
		c0.1,7.8,5.2,14.5,14.2,14.5c9.4,0,11.7-5.2,15.1-5.2c1.9,0,3.3,1.3,3.3,3.3c0,3.9-8.6,8.9-18.2,8.9c-7.2,0-12-2.3-15.6-5.9
		c-4.6-4.6-6.7-11.4-6.7-18.6c0-13.1,8.1-24.5,21.6-24.5c12.6,0,20.7,11,20.7,23.3c0,2.8-1.1,4.2-4.4,4.2H133.3z"/>
	<path class="st1" d="M184,221.8c0,2.6-1.6,4.2-4,4.2s-4-1.6-4-4.2v-56.6c0-2.6,1.6-4.2,4-4.2s4,1.6,4,4.2V221.8z"/>
	<path class="st1" d="M213.2,219.1c7.8,0,13.2-6.8,13.2-17.5c0-10.8-5.4-17.5-13.2-17.5s-13.2,6.8-13.2,17.5
		S205.4,219.1,213.2,219.1 M213.2,226c-12.7,0-21.2-10.1-21.2-24.5s8.5-24.5,21.2-24.5s21.2,10.1,21.2,24.5
		C234.4,216,226,226,213.2,226"/>
	<path class="st1" d="M321.2,180.4c-4.5,15.2-11.8,40.3-12.4,42.4c-0.7,2.3-2.1,3.2-4.3,3.2c-2.2,0-3.5-0.8-4.3-3.2
		c-0.6-2.1-8.3-28.4-12.7-43.5c-0.7-2.5-1.4-5.4-1.9-7.9c-0.3,2.4-0.7,5.3-1.1,7.9c-2.3,14.3-5.8,36.5-6.8,42.7
		c-0.4,2.8-1.8,4-4.2,4c-2.2,0-3.6-1.5-3.6-3.8c0-0.9,0.2-2.1,0.4-3.6c0,0,8-48,8.7-51.7c0.7-3.9,2.7-6,6.1-6c3,0,5.3,1.7,6.3,5
		c0.6,2,7.1,24.6,11.2,38.8c0.8,2.6,1.5,5.7,2.1,8.5c0.5-2.7,1.3-5.7,2-8.3c4.1-14.2,10.7-37.1,11.3-39.1c0.9-3.3,3-5,6-5
		c3.1,0,5.4,2,6.1,6c0.6,3.7,8.7,51.7,8.7,51.7c0.3,1.5,0.4,2.7,0.4,3.6c0,2.3-1.4,3.8-3.6,3.8c-2.3,0-3.7-1.2-4.2-4
		c-1-6.1-4.3-27.2-6.6-41.5c-0.5-2.9-0.9-6.2-1.3-9.2C322.9,174,322.1,177.2,321.2,180.4"/>
	<path class="st1" d="M357.3,181.4c0-2.6-1.6-4.2-4-4.2s-4,1.6-4,4.2v40.4c0,2.6,1.6,4.2,4,4.2s4-1.6,4-4.2V181.4z M353.3,163.1
		c2.7,0,4.9,2.2,4.9,4.9s-2.2,4.9-4.9,4.9c-2.7,0-4.9-2.2-4.9-4.9S350.5,163.1,353.3,163.1"/>
	<path class="st1" d="M371.2,167.3c0-2.6,1.5-4.2,4-4.2c2.4,0,4,1.6,4,4.2v10.3h3.3c2.6,0,4,1.3,4,3.4c0,2.2-1.4,3.5-4,3.5h-3.3
		v37.3c0,2.6-1.6,4.2-4,4.2c-2.5,0-4-1.6-4-4.2v-37.3h-2.9c-2.6,0-4-1.3-4-3.5s1.4-3.4,4-3.4h2.9V167.3z"/>
	<path class="st1" d="M396.5,167.3c0-2.6,1.6-4.2,4-4.2s4,1.6,4,4.2v10.3h3.3c2.6,0,4,1.3,4,3.4c0,2.2-1.4,3.5-4,3.5h-3.3v37.3
		c0,2.6-1.6,4.2-4,4.2c-2.5,0-4-1.6-4-4.2v-37.3h-2.9c-2.6,0-4-1.3-4-3.5s1.4-3.4,4-3.4h2.9V167.3z"/>
	<path class="st1" d="M17.1,200.9c3.3-9.2,7-19.4,9.4-26.1c0.7-1.9,1.3-3.7,1.7-5.2c0.5,1.6,1.1,3.5,1.7,5.2
		c2.4,6.8,6.1,16.9,9.4,26.1H17.1z M54.1,218.7c-1.7-4.5-17.3-46.2-19.8-52.7c-1.2-3.2-3.1-5.1-6.2-5.1c-3.2,0-4.9,1.9-6.1,5.1
		c-1,3-18.1,48.3-19.8,52.7c-0.7,2-1,3-1,3.9c0,2,1.7,3.4,3.8,3.4c2.2,0,3.4-1.1,4.1-3c0.4-1.1,2.6-7.3,5.5-15.1h27.3
		c2.7,7.4,4.8,13.4,5.5,15.1c0.6,1.7,1.7,3,3.9,3c2.1,0,4-1.3,4-3.3C55.2,221.8,55,221.1,54.1,218.7"/>
	<path class="st1" d="M477.2,221.8c0,2.6-1.6,4.2-4,4.2s-4-1.6-4-4.2v-56.6c0-2.6,1.6-4.2,4-4.2s4,1.6,4,4.2V221.8z"/>
	<path class="st1" d="M436.7,219.1c-7.8,0-13.2-6.8-13.2-17.5c0-10.8,5.4-17.5,13.2-17.5c7.8,0,13.2,6.8,13.2,17.5
		C449.9,212.3,444.6,219.1,436.7,219.1 M453.8,177.1c-2.4,0-4,1.6-4,4.2v3.6c-3-4.8-7.8-7.8-13.7-7.8c-12.2,0-20.6,10.1-20.6,24.5
		s8.4,24.5,20.6,24.5c6,0,10.8-3,13.7-7.8v3.6c0,2.6,1.6,4.2,4,4.2s4-1.6,4-4.2v-40.4C457.9,178.8,456.3,177.1,453.8,177.1"/>
</g>
</svg>
